# xmcd CD Database Entry
#
# Track frame offsets:
# 150
# 19517
# 35930
# 55102
# 75272
# 87517
# 99817
# 120165
# 137880
# 160697
# 178090
# 199992
# 223555
# 241660
# 262962
# 288177
# 316000
# 316672
# 316972
# 317272
# 317572
# 317872
# 318172
# 318472
# 318772
# 319072
# 319372
# 319672
# 319972
# 320272
# 320572
# 320872
# 321172
# 321472
# 321772
# 322072
# 322372
# 322672
# 322972
# 323272
# 323572
# 323872
# 324172
# 324472
# 324772
# 325072
# 325372
# 325672
# 325972
# 326272
# 326572
# 326872
# 327172
# 327472
# 327772
# 328072
# 328372
# 328672
# 328972
# 329272
# 329572
# 329872
# 330172
# 330472
# 330772
# 331072
# 331372
# 331672
# 331972
# 332272
# 332572
# 332872
# 333172
# 333472
# 333772
# 334072
# 334372
# 334672
# 334972
# 335272
# 335572
# 335872
# 336172
# 336472
# 336772
# 337072
# 337372
# 337672
# 337972
# 338272
# 338572
# 338872
# 339172
# 339472
# 339772
# 340072
# 340372
# 340672
# 341060
#
# Disc length: 4646 seconds
#
# Revision: 5
# Processed by: cddbd v1.4b41PL3 Copyright (c) Steve Scherf et al.
# Submitted via: tcd 2.0b
#
DISCID=eb122463
DTITLE=Marylin Manson - Antichrist Superstar
DYEAR=1900
DGENRE=
TTITLE0=Irresponisible Hate Anthem
TTITLE1=The Beautiful People
TTITLE2=Dried up, Tried up, Dead to the World
TTITLE3=Tourniquet
TTITLE4=Little Horn
TTITLE5=Cryhtorchild
TTITLE6=Deformography
TTITLE7=Wormboy
TTITLE8=Mister Superstar
TTITLE9=Angel With the Scabbed Wings
TTITLE10=Kinderfield
TTITLE11=Antichrist Superstar
TTITLE12=1996
TTITLE13=Minute of Decay
TTITLE14=The Reflecting God
TTITLE15=Man that you fear
TTITLE16=Untitled
TTITLE17=
TTITLE18=
TTITLE19=
TTITLE20=
TTITLE21=
TTITLE22=
TTITLE23=
TTITLE24=
TTITLE25=
TTITLE26=
TTITLE27=
TTITLE28=
TTITLE29=
TTITLE30=
TTITLE31=
TTITLE32=
TTITLE33=
TTITLE34=
TTITLE35=
TTITLE36=
TTITLE37=
TTITLE38=
TTITLE39=
TTITLE40=
TTITLE41=
TTITLE42=
TTITLE43=
TTITLE44=
TTITLE45=
TTITLE46=
TTITLE47=
TTITLE48=
TTITLE49=
TTITLE50=
TTITLE51=
TTITLE52=
TTITLE53=
TTITLE54=
TTITLE55=
TTITLE56=
TTITLE57=
TTITLE58=
TTITLE59=
TTITLE60=
TTITLE61=
TTITLE62=
TTITLE63=
TTITLE64=
TTITLE65=
TTITLE66=
TTITLE67=
TTITLE68=
TTITLE69=
TTITLE70=
TTITLE71=
TTITLE72=
TTITLE73=
TTITLE74=
TTITLE75=
TTITLE76=
TTITLE77=
TTITLE78=
TTITLE79=
TTITLE80=
TTITLE81=
TTITLE82=
TTITLE83=
TTITLE84=
TTITLE85=
TTITLE86=
TTITLE87=
TTITLE88=
TTITLE89=
TTITLE90=
TTITLE91=
TTITLE92=
TTITLE93=
TTITLE94=
TTITLE95=
TTITLE96=
TTITLE97=
TTITLE98=
EXTD=
EXTT0=
EXTT1=
EXTT2=
EXTT3=
EXTT4=
EXTT5=
EXTT6=
EXTT7=
EXTT8=
EXTT9=
EXTT10=
EXTT11=
EXTT12=
EXTT13=
EXTT14=
EXTT15=
EXTT16=
EXTT17=
EXTT18=
EXTT19=
EXTT20=
EXTT21=
EXTT22=
EXTT23=
EXTT24=
EXTT25=
EXTT26=
EXTT27=
EXTT28=
EXTT29=
EXTT30=
EXTT31=
EXTT32=
EXTT33=
EXTT34=
EXTT35=
EXTT36=
EXTT37=
EXTT38=
EXTT39=
EXTT40=
EXTT41=
EXTT42=
EXTT43=
EXTT44=
EXTT45=
EXTT46=
EXTT47=
EXTT48=
EXTT49=
EXTT50=
EXTT51=
EXTT52=
EXTT53=
EXTT54=
EXTT55=
EXTT56=
EXTT57=
EXTT58=
EXTT59=
EXTT60=
EXTT61=
EXTT62=
EXTT63=
EXTT64=
EXTT65=
EXTT66=
EXTT67=
EXTT68=
EXTT69=
EXTT70=
EXTT71=
EXTT72=
EXTT73=
EXTT74=
EXTT75=
EXTT76=
EXTT77=
EXTT78=
EXTT79=
EXTT80=
EXTT81=
EXTT82=
EXTT83=
EXTT84=
EXTT85=
EXTT86=
EXTT87=
EXTT88=
EXTT89=
EXTT90=
EXTT91=
EXTT92=
EXTT93=
EXTT94=
EXTT95=
EXTT96=
EXTT97=
EXTT98=
PLAYORDER=
